<!--<?xml version="1.0" encoding="UTF-8"?>-->
<svg id="add" data-name="add" xmlns="http://www.w3.org/2000/svg" viewBox="0 0 1501.83 1501.84">
  <g id="add-1" data-name="add-1">
    <g>
      <path d="M750.91,0C336.86,0,0,336.86,0,750.92s336.86,750.92,750.91,750.92,750.92-336.86,750.92-750.92S1164.97,0,750.91,0ZM750.91,1359.36c-335.49,0-608.43-272.95-608.43-608.44S415.42,142.48,750.91,142.48s608.44,272.95,608.44,608.44-272.95,608.44-608.44,608.44Z"/>
      <path d="M822.15,679.68v-318.16c0-39.34-31.89-71.24-71.24-71.24s-71.24,31.9-71.24,71.24v318.16h-318.16c-39.35,0-71.24,31.9-71.24,71.24s31.89,71.24,71.24,71.24h318.16v318.16c0,39.35,31.89,71.24,71.24,71.24s71.24-31.89,71.24-71.24v-318.16h318.16c39.35,0,71.24-31.89,71.24-71.24s-31.89-71.24-71.24-71.24h-318.16Z"/>
    </g>
  </g>
</svg>