<?xml version="1.0" encoding="UTF-8"?>
<svg id="cpost" data-name="cpost" xmlns="http://www.w3.org/2000/svg" viewBox="0 0 469.58 469.59">
  <g id="icon1" data-name="icon1">
    <g>
      <path d="M384.36,382.94c0,28.25-22.96,51.33-51.33,51.33H86.64c-28.25,0-51.33-23.07-51.33-51.33v-246.39c0-28.37,23.07-51.33,51.33-51.33h163.87l35.32-35.32H86.64C38.85,49.91,0,88.76,0,136.55v246.39c0,47.8,38.85,86.64,86.64,86.64h246.39c47.8,0,86.64-38.85,86.64-86.64v-199.18l-35.32,35.32v163.87Z"/>
      <path d="M458.57,41.74l-30.71-30.73c-14.68-14.68-38.48-14.68-53.17,0l-181.53,181.53,83.9,83.89,181.52-181.53c14.68-14.68,14.68-38.48,0-53.16Z"/>
      <path d="M136.28,348.36l77.46-25.9c13.92-4.65,26.36-12.46,37.54-21.88l-82.28-82.28c-9.42,11.17-17.22,23.62-21.87,37.54l-25.91,77.47c-3.11,9.31,5.75,18.17,15.06,15.05Z"/>
    </g>
  </g>
</svg>