<?xml version="1.0" encoding="UTF-8"?>
<svg id="Layer_2" data-name="Layer 2" xmlns="http://www.w3.org/2000/svg" viewBox="0 0 1857.06 2171.75">
  <g id="_Layer_" data-name="&amp;lt;Layer&amp;gt;">
    <g>
      <path d="M1845,699.2L1587.69,0l-733.75,125.04c-19.56,1.67-38.74,7.88-55.51,17.96-18.57,11.15-34.15,26.95-45.05,45.68l-.29.5,1.53.9-1.54-.88L17.44,1477.76l-.03.04c-8.73,15.08-14.25,31.46-16.41,48.67-.67,5.33-1,10.75-1,16.11,0,19.11,4.34,38.32,12.55,55.61l.4.84c5.5,11.36,12.6,21.82,21.13,31.1,1.89,2.06,3.85,4.06,5.88,6l-2.51,2.52,26.84,15.79,862.65,499.81.17.1c15.07,8.72,31.44,14.24,48.65,16.39,5.33.67,10.76,1.01,16.12,1.01h0c19.4,0,38.91-4.47,56.41-12.93l1.42-.69.04-.03c10.8-5.39,20.77-12.25,29.66-20.4,2.05-1.88,4.04-3.83,5.97-5.85l2.08,2.08,13.45-21.85c.69-1.08,1.35-2.17,2.01-3.27l.89-1.47,736.57-1290.18.53-1c10.08-18.21,15.65-38.8,16.12-59.55.02-.99.03-1.97.03-2.96h0c0-18.67-4.17-37.49-12.06-54.46ZM876.58,271.31l614.69-104.75,215.61,585.86-721.83,1264.47-830.31-481.07L876.58,271.31Z"/>
      <path d="M1088.93,744.21c13.49,14.72,29.41,27.67,47.43,38.16,24.02,13.99,50,22.56,76.14,25.89,8.54,1.09,17.1,1.63,25.62,1.63,30.6,0,60.74-6.93,88.19-20.17,17.55-8.46,34.02-19.53,48.74-33.02,14.72-13.49,27.67-29.41,38.16-47.43,13.99-24.02,22.56-50,25.9-76.14,1.09-8.54,1.63-17.1,1.63-25.62,0-30.6-6.93-60.74-20.17-88.19h0c-8.46-17.55-19.53-34.02-33.02-48.74h0c-13.49-14.72-29.41-27.68-47.43-38.16h0c-24.02-13.99-50.01-22.56-76.15-25.89-8.54-1.09-17.1-1.63-25.62-1.63-30.6,0-60.74,6.93-88.19,20.17-17.55,8.46-34.02,19.53-48.74,33.02-14.72,13.49-27.67,29.41-38.16,47.43h0c-13.99,24.02-22.56,50-25.9,76.14-1.09,8.54-1.63,17.1-1.63,25.62,0,30.6,6.93,60.74,20.17,88.19,8.47,17.55,19.53,34.02,33.02,48.74ZM1157.81,588.98c1.81-7.87,4.79-15.57,9.16-23.08,5.83-10,13.18-18.06,21.73-24.48,12.76-9.59,28.29-15.28,44.15-16.33h0c1.84-.12,3.68-.19,5.52-.19,6.12,0,12.25.68,18.29,2.07,7.87,1.81,15.57,4.79,23.07,9.15,10,5.83,18.06,13.18,24.48,21.73,9.59,12.76,15.28,28.29,16.33,44.16h0c.12,1.84.18,3.68.18,5.52,0,6.12-.68,12.25-2.07,18.29-1.81,7.87-4.79,15.57-9.15,23.07-5.83,9.99-13.18,18.05-21.73,24.48-6.4,4.8-13.45,8.62-20.91,11.37-9.18,3.39-18.97,5.15-28.77,5.15-2.14,0-4.28-.08-6.41-.25-5.97-.47-11.9-1.59-17.74-3.4-5.84-1.81-11.58-4.3-17.2-7.57-9.99-5.83-18.05-13.18-24.48-21.73-9.58-12.76-15.28-28.29-16.33-44.15h0c-.12-1.84-.18-3.68-.18-5.52,0-6.12.68-12.25,2.07-18.29Z"/>
    </g>
  </g>
</svg>