<?xml version="1.0" encoding="UTF-8"?>
<svg id="Layer_2" data-name="Layer 2" xmlns="http://www.w3.org/2000/svg" viewBox="0 0 508.23 508.23">
  <g id="Layer_1-2" data-name="Layer 1">
    <path d="M492.2,344.31c-8.43-13.61-19.84-25.22-33.25-33.89,8.06-24.04,12.15-49.2,12.15-74.87,0-62.92-24.5-122.07-68.99-166.56C357.62,24.5,298.47,0,235.55,0S113.48,24.5,68.99,68.99C24.5,113.48,0,172.63,0,235.55s24.5,122.07,68.99,166.56c44.49,44.49,103.64,68.99,166.56,68.99,25.67,0,50.82-4.08,74.87-12.15,8.67,13.41,20.28,24.82,33.89,33.25,16.94,10.49,36.46,16.04,56.44,16.04,59.27,0,107.48-48.22,107.48-107.49,0-19.98-5.54-39.49-16.04-56.43ZM296.54,427.14c-19.63,6.25-40.11,9.42-60.99,9.42s-43.38-3.5-63.92-10.42c-17.78-5.98-34.6-14.42-50.08-25.13,4.4-25.47,17.45-48.95,37.1-66.53,21.38-19.12,48.69-29.65,76.9-29.65,16.32,0,32.12,3.37,46.97,10.03,11.91,5.34,22.71,12.56,32.19,21.52-13.88,18.53-21.45,41.11-21.45,64.36,0,8.95,1.1,17.8,3.28,26.4ZM289.22,183.2c0,29.59-24.07,53.67-53.67,53.67s-53.68-24.08-53.68-53.67,24.08-53.67,53.68-53.67,53.67,24.08,53.67,53.67ZM427.14,296.54c-8.59-2.18-17.44-3.28-26.39-3.28-21.81,0-43.26,6.75-61.15,19.14-12.63-12.21-27.13-22-43.17-29.15-15.88-7.08-32.58-11.28-49.81-12.54,43.43-5.46,77.13-42.62,77.13-87.51,0-48.64-39.57-88.21-88.2-88.21s-88.21,39.57-88.21,88.21c0,44.89,33.71,82.06,77.16,87.51-33.68,2.49-65.52,16.28-90.66,39.49-12.27,11.32-22.49,24.44-30.39,39-4.68,8.62-8.48,17.65-11.38,26.97-36.71-37.48-57.53-88.01-57.53-140.62,0-110.84,90.18-201.01,201.02-201.01s201,90.17,201,201.01c0,20.88-3.16,41.36-9.42,60.99ZM400.75,327.79c22.53,0,42.7,10.27,56.09,26.37-6.59-3.8-15.19-2.91-20.84,2.73l-51.08,51.09-19.45-19.45c-6.73-6.71-17.68-6.7-24.42.02-6.71,6.72-6.71,17.67,0,24.42l31.68,31.68c3.27,3.24,7.6,5.03,12.19,5.03s8.9-1.79,12.21-5.06l63.3-63.3c3.94-3.94,5.55-9.33,4.87-14.48,5.35,10.14,8.4,21.68,8.4,33.92,0,40.23-32.72,72.95-72.95,72.95s-72.96-32.73-72.96-72.95,32.73-72.95,72.96-72.95Z"/>
  </g>
</svg>