<?xml version="1.0" encoding="UTF-8"?>
<svg id="Layer_2" data-name="Layer 2" xmlns="http://www.w3.org/2000/svg" viewBox="0 0 1134.8 1229.52">
  <g id="Isolation_Mode" data-name="Isolation Mode">
    <g>
      <rect x="176.47" y="568.4" width="165.45" height="165.45" rx="19.37" ry="19.37"/>
      <rect x="485.2" y="568.4" width="165.45" height="165.45" rx="19.37" ry="19.37"/>
      <rect x="793.93" y="568.4" width="165.45" height="165.45" rx="19.37" ry="19.37"/>
      <rect x="176.47" y="864.05" width="165.45" height="165.45" rx="19.37" ry="19.37"/>
      <rect x="485.2" y="864.05" width="165.45" height="165.45" rx="19.37" ry="19.37"/>
      <rect x="793.93" y="864.05" width="165.45" height="165.45" rx="19.37" ry="19.37"/>
      <path d="M1116.02,240.5c-12.02-28.43-29.23-53.96-51.14-75.86-21.91-21.91-47.43-39.11-75.86-51.14-29.46-12.46-60.73-18.78-92.93-18.78h-4.34v78.32c0,35.3-28.73,64.03-64.03,64.03h-39.97c-35.3,0-64.03-28.73-64.03-64.03v-78.32h-312.63v78.32c0,35.3-28.73,64.03-64.03,64.03h-39.97c-35.31,0-64.03-28.73-64.03-64.03v-78.32h-4.34c-32.21,0-63.47,6.32-92.94,18.78-28.43,12.02-53.96,29.23-75.86,51.14-21.91,21.91-39.11,47.44-51.14,75.86C6.32,269.96,0,301.22,0,333.43v657.37c0,32.2,6.32,63.47,18.78,92.93,12.03,28.43,29.23,53.96,51.14,75.86,21.91,21.91,47.44,39.11,75.86,51.14,29.46,12.46,60.73,18.78,92.94,18.78h657.37c32.2,0,63.47-6.32,92.93-18.78,28.43-12.03,53.96-29.23,75.86-51.14,21.91-21.91,39.11-47.43,51.14-75.86,12.46-29.46,18.78-60.73,18.78-92.93V333.43c0-32.21-6.32-63.47-18.78-92.94ZM1042.1,990.8c0,80.51-65.5,146.02-146.02,146.02H238.71c-80.51,0-146.02-65.5-146.02-146.02V461.09h949.4v529.72Z"/>
      <path d="M787.74,208.74h39.97c19.72,0,35.7-15.99,35.7-35.7V35.7c0-19.72-15.99-35.7-35.7-35.7h-39.97c-19.72,0-35.7,15.99-35.7,35.7v137.33c0,19.72,15.98,35.7,35.7,35.7Z"/>
      <path d="M307.08,208.74h39.97c19.72,0,35.71-15.99,35.71-35.7V35.7c0-19.72-15.99-35.7-35.71-35.7h-39.97c-19.72,0-35.7,15.99-35.7,35.7v137.33c0,19.72,15.98,35.7,35.7,35.7Z"/>
    </g>
  </g>
</svg>