<?xml version="1.0" encoding="UTF-8"?>
<svg id="Layer_2" data-name="Layer 2" xmlns="http://www.w3.org/2000/svg" viewBox="0 0 1750 1950">
  <defs>
    <style>
      .cls-1 {
        fill-rule: evenodd;
      }
    </style>
  </defs>
  <g id="Layer_1-2" data-name="Layer 1">
    <path class="cls-1" d="M748.61,150c-47.57,0-79.94,26.25-88.55,60.68l-1.89,7.57h0c-6.27,25.14-13.44,53.92-22.6,81.75h478.88c-9.16-27.83-16.34-56.6-22.6-81.75l-1.9-7.57c-8.61-34.43-40.98-60.68-88.55-60.68h-252.78ZM480.72,284.74c-4.09,8.38-7.36,12.97-9.29,15.26H75c-41.42,0-75,33.58-75,75s33.58,75,75,75h34.34l168.18,1261.34c18.22,136.63,134.76,238.66,272.59,238.66h649.8c137.83,0,254.37-102.03,272.58-238.65l168.18-1261.35h34.34c41.42,0,75-33.58,75-75s-33.58-75-75-75h-396.43c-1.93-2.29-5.19-6.88-9.28-15.26-12.52-25.63-21.77-62.29-33.83-110.47C1207.29,61.72,1105.34,0,1001.39,0h-252.78c-103.95,0-205.9,61.72-234.07,174.27-12.06,48.19-21.31,84.84-33.83,110.47ZM260.66,450h1228.68l-165.54,1241.52c-8.28,62.1-61.25,108.48-123.9,108.48h-649.8c-62.65,0-115.62-46.38-123.9-108.48L260.66,450ZM750,775c0-41.42-33.58-75-75-75s-75,33.58-75,75v700c0,41.42,33.58,75,75,75s75-33.58,75-75v-700ZM1150,775c0-41.42-33.58-75-75-75s-75,33.58-75,75v700c0,41.42,33.58,75,75,75s75-33.58,75-75v-700Z"/>
  </g>
</svg>