<?xml version="1.0" encoding="UTF-8"?>
<svg id="inbox" data-name="inbox" xmlns="http://www.w3.org/2000/svg" viewBox="0 0 519.94 449.28">
  <g id="Icon4" data-name="Icon4">
    <path d="M516.49,197.3l-82.25-116.3c-8.71-12.32-21.6-19.39-35.37-19.39h-108.75l-.02-55.08C290.1,2.92,288.22,0,285.91,0l-50.21.02c-2.31,0-4.18,2.92-4.18,6.53l.02,55.06h-110.47c-13.76,0-26.65,7.07-35.37,19.39L3.44,197.3c-2.23,3.15-3.44,7.17-3.44,11.16v187.96c0,29.15,20.5,52.86,45.7,52.86h428.54c25.2,0,45.7-23.71,45.7-52.86v-187.96c0-3.86-1.17-7.94-3.44-11.16ZM109.28,103.32c2.9-4.11,7.2-6.46,11.79-6.46h110.49v21.57s-20.91,0-20.91,0c-1.64,0-3.12,1.48-3.8,3.8-.68,2.32-.44,5.04.63,6.98l50.25,91.39c.8,1.45,1.96,2.28,3.18,2.28,1.22,0,2.38-.83,3.18-2.28l50.18-91.43c.66-1.21,1.01-2.72,1.01-4.25,0-.92-.13-1.86-.38-2.73-.68-2.32-2.17-3.8-3.8-3.8h-20.92s0-21.54,0-21.54h108.74c4.59,0,8.88,2.36,11.79,6.46l61.9,87.52h-111.04c-7.63,0-14.09,6.54-15.1,15.29l-8.39,72.81h-156.12l-8.39-72.81c-1.01-8.76-7.46-15.29-15.1-15.29H47.38l61.9-87.52ZM489.47,396.42c0,9.72-6.83,17.62-15.23,17.62H45.7c-8.4,0-15.23-7.9-15.23-17.62v-170.34h114.62l8.39,72.81c1.01,8.76,7.46,15.29,15.1,15.29h182.79c7.63,0,14.09-6.54,15.1-15.29l8.39-72.81h114.62v170.34Z"/>
  </g>
</svg>