<?xml version="1.0" encoding="UTF-8"?>
<svg id="note" data-name="note 2" xmlns="http://www.w3.org/2000/svg" viewBox="0 0 239.62 232.22">
  <defs>
  </defs>
  <g id="Icon5" data-name="Icon5">
    <g>
      <path class="note-1" d="M82.88,216.99H15.23v-64.04h52.37v-15.23H7.62c-4.21,0-7.62,3.41-7.62,7.62v79.27c0,4.21,3.41,7.62,7.62,7.62h82.88c4.21,0,7.62-3.41,7.62-7.62v-35.59h-15.23v27.98Z"/>
      <path class="note-2" d="M7.62,99.61h82.88c4.21,0,7.62-3.41,7.62-7.62v-35.59h-15.23v27.98H15.23V20.35h52.37V5.12H7.62C3.41,5.12,0,8.53,0,12.73v79.27c0,4.21,3.41,7.62,7.62,7.62Z"/>
      <path class="note-3" d="M87.15,128.39c-.43-.43-1.26-.13-1.45.53l-15.81,53.08c-.18.61.31,1.1.92.92l53.08-15.81c.66-.2.96-1.02.53-1.45l-37.27-37.27Z"/>
      <path class="note-4" d="M33.6,34.27l-10.9,10.64,24.48,25.06c1.44,1.47,3.4,2.29,5.45,2.29.11,0,.23,0,.34,0,2.17-.1,4.19-1.11,5.56-2.79L107.35,9.63,95.55,0l-43.43,53.23-18.52-18.96Z"/>
      <path class="note-5" d="M174.95,39.54c-.3-.3-.84-.26-1.19.1l-79.4,79.4c-.36.36-.4.89-.1,1.19l38.31,38.31c.3.3.84.26,1.19-.1l79.4-79.4c.36-.36.4-.89.1-1.19l-38.31-38.31Z"/>
      <path class="note-6" d="M239.42,51.7l-38.31-38.31c-.3-.3-.84-.26-1.19.1l-17.23,17.23c-.36.36-.4.89-.1,1.19l38.31,38.31c.3.3.84.26,1.19-.1l17.23-17.23c.36-.36.4-.89.1-1.19Z"/>
    </g>
  </g>
</svg>