<?xml version="1.0" encoding="UTF-8"?>
<svg id="bell" data-name="bell" xmlns="http://www.w3.org/2000/svg" viewBox="0 0 885.83 1095.94">
  <defs>
  </defs>
  <g id="Icon2" data-name="Icon2">
    <g>
      <path class="bell-1" d="M795.65,962.13H90.17c-49.72,0-90.17-40.45-90.17-90.17,0-30.12,15.1-58.22,40.4-75.17,18.49-12.38,30.47-26.26,33.75-39.08,6.4-25.01,19.04-91.43,31.85-255.18,3.78-48.35,14.77-93.63,32.64-134.57,17.69-40.52,41.8-76.09,71.66-105.72,29.99-29.76,65.08-52.84,104.29-68.61,39.76-15.99,82.93-24.09,128.31-24.09s89.28,8.73,130.68,25.94c40.19,16.71,76.26,40.68,107.19,71.24,63.93,63.15,99.14,147.84,99.14,238.46,0,145.63,21.12,216.49,29.07,243.16,1.12,3.75,2,6.72,2.68,9.37,3.28,12.82,15.26,26.7,33.75,39.08,25.3,16.95,40.4,45.05,40.4,75.17,0,49.72-40.45,90.17-90.17,90.17ZM442.91,237.44c-148.36,0-256.54,108.65-269.2,270.37-12.55,160.39-25.29,233.56-33.76,266.71-7.53,29.46-28.89,56.67-61.75,78.68-6.44,4.31-10.29,11.32-10.29,18.75,0,12.27,9.98,22.26,22.26,22.26h705.48c12.27,0,22.26-9.98,22.26-22.26,0-7.42-3.84-14.43-10.29-18.75-32.87-22.02-54.22-49.22-61.75-78.68-.35-1.36-1.1-3.88-1.97-6.8-8.72-29.27-31.89-107.02-31.89-262.56s-120.72-267.72-269.1-267.72Z"/>
      <path class="bell-2" d="M442.91,1095.94c-80.1,0-145.28-65.17-145.28-145.28,0-18.75,15.2-33.96,33.96-33.96s33.96,15.2,33.96,33.96c0,42.66,34.7,77.36,77.36,77.36s77.36-34.7,77.36-77.36c0-18.75,15.2-33.96,33.96-33.96s33.96,15.2,33.96,33.96c0,80.1-65.17,145.28-145.28,145.28Z"/>
      <path class="bell-3" d="M442.91,218.84c-60.33,0-109.42-49.09-109.42-109.42S382.58,0,442.91,0s109.42,49.08,109.42,109.42-49.09,109.42-109.42,109.42ZM442.91,67.92c-22.89,0-41.5,18.62-41.5,41.5s18.62,41.5,41.5,41.5,41.5-18.62,41.5-41.5-18.62-41.5-41.5-41.5Z"/>
    </g>
  </g>
</svg>