<?xml version="1.0" encoding="UTF-8"?>
<svg id="Layer_2" data-name="Layer 2" xmlns="http://www.w3.org/2000/svg" viewBox="0 0 444.02 444.02">
  <g id="Layer_1-2" data-name="Layer 1">
    <g>
      <path d="M221.68,245.01c0-8.27-6.73-15-15-15h-123.01v-33.04l39.4-45.03,42.33,42.33c2.95,2.94,6.94,4.51,11.36,4.37,4.22-.21,8.18-2.21,10.86-5.48l58.51-71.51,26.62,26.62c2.96,2.96,7.11,4.56,11.44,4.37,4.25-.24,8.22-2.29,10.87-5.61l30.67-38.34c5.16-6.46,4.12-15.92-2.34-21.08-3.14-2.51-7.06-3.65-11.04-3.2-3.98.44-7.55,2.41-10.05,5.54l-20.2,25.25-26.49-26.48c-2.98-2.98-7-4.54-11.36-4.38-4.23.21-8.18,2.21-10.86,5.48l-58.51,71.51-41.95-41.95c-2.98-2.99-7.14-4.64-11.16-4.39-4.11.15-8.03,2.01-10.74,5.11l-27.38,31.29v-82.75c0-8.27-6.73-15-15-15s-15,6.73-15,15v176.34c0,8.27,6.73,15,15,15h138.01c8.27,0,15-6.73,15-15Z"/>
      <path d="M206.34,298.68c0-8.27-6.73-15-15-15h-122.67c-8.27,0-15,6.73-15,15s6.73,15,15,15h122.67c8.27,0,15-6.73,15-15Z"/>
      <path d="M68.67,329.68c-8.27,0-15,6.73-15,15s6.73,15,15,15h69c8.27,0,15-6.73,15-15s-6.73-15-15-15h-69Z"/>
      <path d="M382.69,232.17V38c0-20.95-17.05-38-38-38H38C17.05,0,0,17.05,0,38v352.68c0,20.95,17.05,38,38,38h184.01c8.27,0,15-6.73,15-15s-6.73-15-15-15H38c-4.41,0-8-3.59-8-8V38c0-4.41,3.59-8,8-8h306.68c4.41,0,8,3.59,8,8v183.96c-6.69-1.25-13.59-1.92-20.65-1.92-61.75,0-111.99,50.24-111.99,111.99s50.24,111.98,111.99,111.98,111.98-50.24,111.98-111.98c0-43.54-24.97-81.34-61.34-99.87ZM332.04,414.02c-45.21,0-81.99-36.78-81.99-81.98s36.78-81.99,81.99-81.99c10.5,0,20.54,2.01,29.77,5.62.06.02.11.04.17.07,30.44,11.99,52.04,41.66,52.04,76.3,0,45.21-36.78,81.98-81.98,81.98Z"/>
      <path d="M347.04,325.46v-50.11c0-8.27-6.73-15-15-15s-15,6.73-15,15v56.69c0,4.18,1.77,8.21,4.84,11.04l42.64,39.22c2.78,2.55,6.38,3.96,10.15,3.96,4.18,0,8.21-1.76,11.05-4.85,5.59-6.09,5.19-15.6-.89-21.2l-37.8-34.76Z"/>
    </g>
  </g>
</svg>