<?xml version="1.0" encoding="UTF-8"?>
<svg id="Layer_2" data-name="Layer 2" xmlns="http://www.w3.org/2000/svg" viewBox="0 0 429.3 411.97">
  <g id="Layer_1-2" data-name="Layer 1">
    <path d="M427.41,154.58c-4.6-14.16-16.64-24.05-31.43-25.8l-101.72-12.06c-1.06-.13-2-.81-2.45-1.78l-42.91-93.02c-6.24-13.52-19.36-21.92-34.25-21.92s-28.01,8.4-34.25,21.92l-42.9,93.02c-.45.97-1.39,1.66-2.45,1.78l-101.72,12.06c-14.79,1.75-26.83,11.64-31.43,25.8s-.67,29.24,10.26,39.35l75.21,69.55c.8.74,1.15,1.81.94,2.88l-19.96,100.47c-2.9,14.6,2.78,29.11,14.82,37.87,12.05,8.75,27.6,9.67,40.59,2.4l89.38-50.03c.94-.52,2.1-.52,3.03,0l89.38,50.03c5.83,3.26,12.16,4.88,18.47,4.87,7.76,0,15.48-2.44,22.12-7.27,12.04-8.75,17.72-23.26,14.82-37.86l-19.96-100.47c-.21-1.07.14-2.14.94-2.88l75.21-69.55c10.93-10.11,14.86-25.19,10.26-39.35ZM307.05,273.1l19.96,100.47c.24,1.22-.21,2.38-1.22,3.12-1.01.73-2.25.8-3.34.2l-89.38-50.03c-11.36-6.36-25.48-6.36-36.85,0l-89.38,50.03c-1.09.61-2.33.53-3.34-.2-1.01-.73-1.46-1.9-1.22-3.12l19.96-100.47c2.54-12.77-1.82-26.2-11.39-35.04l-75.21-69.55c-.91-.84-1.23-2.05-.84-3.23.38-1.18,1.35-1.98,2.59-2.12l101.72-12.06c12.93-1.53,24.35-9.83,29.81-21.66l42.9-93.02c.52-1.13,1.57-1.8,2.82-1.8h0c1.24,0,2.3.67,2.82,1.8l42.9,93.02c5.45,11.83,16.88,20.12,29.81,21.66l101.72,12.06c1.24.15,2.2.94,2.59,2.12.38,1.18.07,2.39-.85,3.23l-75.2,69.55c-9.56,8.84-13.92,22.27-11.39,35.04Z"/>
  </g>
</svg>